<?xml version="1.0" encoding="utf-8"?>
<!-- Generator: Adobe Illustrator 21.0.0, SVG Export Plug-In . SVG Version: 6.00 Build 0)  -->
<svg version="1.1" id="Calque_1" xmlns="http://www.w3.org/2000/svg" xmlns:xlink="http://www.w3.org/1999/xlink" x="0px" y="0px"
	 viewBox="0 0 1093.1 589" style="enable-background:new 0 0 1093.1 589;" xml:space="preserve">
<style type="text/css">
	.st0{fill:#311A0E;}
</style>
<g>
	<g>
		<g>
			<g>
				<path class="st0" d="M107.5,184.2c0,0.6-2.9,0.9-8.7,0.9l-0.8-0.9c-2.4-3-5-6-7.7-9l-4.5-5.1l-3.7-3.8c-0.7-0.7-1.1-1.6-1.1-2.5
					c0-1.4,0.3-2.2,1-2.2c1.1-0.1,2.1-1.4,3.1-3.8c0.6-1.7,1.1-3.4,1.8-5.1c0.6-1.2,1-6.1,1-14.8V69.3c0-1.7,0.3-7.8,0.1-8.6
					c-0.1-0.3-0.5-3-0.6-3.5c0.1-0.5,0.8-0.8,2.1-0.9c0.2,0,0.9,0.7,2,2.1c1.1,1.4,2,2.1,2.6,2.1c1.1-0.1,2.3,0.7,3.5,2.5
					c1.2,1.8,2.1,2.6,2.7,2.3l0.6,0.8v98.5c0,3.3,0.3,6.5,1,9.8c1,4.8,2.4,7.3,4.3,7.4C107.1,182,107.5,182.7,107.5,184.2z"/>
				<path class="st0" d="M188.4,136.5c0,3-1.1,4.5-3.2,4.5h-42.6l-4,3.7c-1.2,1.1-1.8,2.5-1.8,4.3c0,1.9,0.7,4.3,2.3,7.3
					c1.1,2.1,2.3,4.2,3.5,6.4c4.8,9.4,12.2,14.1,22.2,14.1c4.2,0,8.6-1.5,13.3-4.5c1.7-1.1,4.6-2.4,8.6-3.8c0.4-0.1,0.7,2.6,0.7,8.1
					c-7.8,6.7-16.6,9.9-26.3,9.9c-11,0-19.9-4.2-26.6-12.6c-6.8-8.5-10.2-18.9-10.2-31.3c0-15.9,5-28.3,14.9-37.1
					c5.9-5.4,12.4-8.1,19.4-8.1c8,0,14.8,3.3,20.3,9.8C185.3,114.5,188.5,124.3,188.4,136.5z M174.6,128.5c-0.1-6.3-1.4-11.6-4-15.7
					c-3-4.7-7.1-7.1-12.4-7.1c-6.3,0-11.2,3.3-14.8,9.9c-2.2,4-3.7,9.7-4.5,17.1h19.1h7.5c1.5,0,3.2-0.4,5.3-1.1
					C173.4,130.6,174.6,129.6,174.6,128.5z"/>
				<path class="st0" d="M258.5,159.7c-0.1,8.1-2.9,14.6-8.3,19.4c-5.3,4.9-11.7,7.3-19,7.3c-2.9,0-5.6-0.5-8.3-1.4
					c-1.6-0.7-3.5-1.4-5.6-2.2c-0.4-0.1-0.8-0.2-1.2-0.3c-1-0.1-1.9,0.2-2.6,0.8c-0.8,0.7-1.5,1-2,0.8c-3.4-0.6-5-3.4-5-8.3v-12.3
					l-0.2-1.1c0.5-0.6,1.3-0.8,2.3-0.5c0.6,0.2,1.2,0.7,1.8,1.3c0.6,0.6,1.9,2.1,4,4.5c3.4,4,7.5,6.8,12.2,8.5
					c3.4,1.2,6.9,1.2,10.6,0c6-1.9,9-5.9,9-11.8c0-5.4-3.4-10.1-10.3-13.9c-0.9-0.7-3.4-2.2-7.9-4.4c-5.3-2.7-9.7-5.5-13-8.5
					c-5-4.6-7.5-10-7.5-16.3c0-7.7,2.6-13.7,7.7-18.1c4.7-4.1,10.5-6.2,17.5-6.2c4.7,0,10,1.2,15.8,3.5l2.7,0.8l0.5,0.1l0.7-0.3h0.5
					c0.4,0.1,0.7,1.1,0.8,2.9l0.5,13.2c-0.3,0.4-0.9,0.7-1.8,1.1c-0.4-0.1-1.1-0.7-1.9-1.6c-1.8-2.2-4.5-4.9-8-8.3
					c-2.7-1.9-5.9-2.9-9.3-2.9c-7.7,0-12.1,3.1-13.1,9.2c-0.3,1.7-0.1,3.7,0.7,6.1c0.8,2.4,2.1,4.3,3.7,5.9c0.9,0.7,2.6,1.8,5.3,3.2
					c1.4,0.7,3.2,1.7,5.3,2.7l3.2,1.6c8.9,4.3,14.7,8.7,17.1,13C257.5,151.1,258.5,155.3,258.5,159.7z"/>
				<path class="st0" d="M434.3,134c0,16.5-5.8,29.8-17.4,39.9c-10.7,9.6-23.5,14.4-38.4,14.4c-9.9,0-19.4-2.6-28.5-7.7
					c-2.2,1.4-3.7,2.9-4.5,4.2c-0.8,1.3-1.7,2-2.6,1.8c-0.9,0-1.9-1.2-2.8-3.5c-0.9-2.3-2.4-6-4.2-11.2c-1.3-2.8-3.3-8.2-6.1-16
					c0.1-4.8,0.5-9.7,1.2-14.7c1.1,0.5,1.9,1.3,2.6,2.2c9.4,13,18.3,21.9,26.6,26.9c6.7,3.6,13.7,5.3,20.7,5.3c9,0,16.6-3,23-9.1
					c6.3-6,9.5-14,9.5-24c0-5-1-9.7-3.1-14.1c-2.2-5.1-7.5-11-16-17.6c-4.6-3.4-11.7-7.3-21.5-11.7C356.6,92,345.3,83.8,339,74.6
					c-5.7-8.2-8.5-17.2-8.5-26.9c0-8.7,2.2-16.7,6.5-24c4.4-7.3,10.1-13.1,17.4-17.3c7.2-4.3,15.7-6.4,25.4-6.4
					c10.1,0,20.6,2.5,31.6,7.4c1.3-0.5,3.1-1.5,5.4-2.9c0.7-0.5,1.6-0.8,2.9-0.8c0.6,0,1.3,0.3,2.1,0.8l0.5,4.3l1.9,28.7
					c-1.1-0.3-2.6-0.6-4.5-0.8c-4-1.1-7.2-1.7-9.7-1.9c-0.6-0.2-1.2-0.7-1.6-1.6c-7.1-13.9-16.7-20.8-28.8-20.8
					c-7.7,0-14.3,2.6-19.6,7.7c-5.8,5.3-8.7,12.3-8.7,20.8c0,9.2,3.6,16.8,10.9,22.6c3.7,3,9.1,6.3,16.1,9.9
					c3.3,1.7,7.5,3.9,12.7,6.4c15.5,7.3,26.5,15.2,33.3,24C430.9,112.6,434.3,122.6,434.3,134z"/>
				<path class="st0" d="M548.9,114c0,4.5-1.5,6.7-4.7,6.7h-62.5l-5.9,5.4c-1.8,1.6-2.6,3.7-2.6,6.4c0,2.7,1.1,6.2,3.3,10.7
					c1.7,3,3.4,6.1,5.2,9.3c7,13.7,17.9,20.5,32.7,20.5c6.1,0,12.6-2.2,19.5-6.6c2.5-1.6,6.8-3.4,12.8-5.5c0.6-0.2,0.9,3.8,0.9,11.9
					c-11.5,9.7-24.4,14.6-38.6,14.6c-16.2,0-29.3-6.2-39.3-18.7c-9.9-12.4-14.9-27.8-14.9-46c0-23.4,7.3-41.6,21.9-54.6
					c8.8-8,18.3-12,28.5-12c11.8,0,21.8,4.8,29.9,14.4C544.4,81.5,549,96,548.9,114z M528.7,102c-0.1-9.2-2.1-16.9-5.9-22.9
					c-4.4-6.9-10.4-10.4-18.1-10.4c-9.3,0-16.5,4.8-21.7,14.4c-3.3,5.9-5.5,14.2-6.6,25.1h28h11c2.2,0,4.8-0.5,7.7-1.6
					C526.9,105.2,528.7,103.6,528.7,102z"/>
				<path class="st0" d="M680.8,183.4c0,0.4-1.9,0.6-5.9,0.8c-2.2,0.2-4.4,0.4-6.6,0.5l-0.7-0.8c-2.8-3.4-5.5-6.2-8.2-8.5l-10.1-8.8
					c-1,0-1.6-1.1-1.6-3.2c0-1.4,0.4-2.3,1.2-2.7c1.8-0.3,3.1-1.7,4-4c0.5-1.6,1-3.2,1.5-4.8c0.5-1.1,0.8-4.7,1-10.9v-32.5
					c0.2-13.3-1.5-22.7-4.9-28.2c-2.8-4.3-6.4-6.7-10.6-7.5c-3.3-0.5-7.7,0.1-13.2,1.9c-7.9,2.6-15.1,9.6-21.7,20.7
					c-2.8,5.2-4.2,23.3-4.2,54.6c0,19.7,2,29.8,5.9,30.3c0.8,0,1.1,1.2,1.1,3.5c0,0.3-2,0.6-5.9,0.8c-4.1,0.4-6.2,0.4-6.4,0
					l-3.3-4.3l-16-19.4c-1.2-1.4-1.7-2.6-1.7-3.5c0-1.2,0.5-2.6,1.4-4l2.8-4.3c1.4-2.1,2.4-6.9,3.1-14.4c0-3.2,0-7.2,0.2-12
					c0.2-4.8,0.2-20.3,0.2-46.6c0-3.4,1.3-18.4-0.3-16.8l18.4,6.7c0.8,2.9,1.2,7.5,1.4,13.8l0.3,4.3C612.7,66.2,625.8,57,641.3,57
					c10.4,0,18.4,3.4,24.2,10.3c5.8,6.8,8.6,17.1,8.4,30.7v55.1c0,3,0.4,7.2,1.2,12.7c0.8,5.4,1.5,8.8,2.1,10.2l2.8,5
					C680.6,181.9,680.8,182.7,680.8,183.4z"/>
				<path class="st0" d="M787.9,148.1c-0.1,11.9-4.2,21.4-12.1,28.5c-7.9,7.2-17.2,10.8-27.9,10.8c-4.2,0-8.3-0.7-12.3-2.1
					c-2.3-1-5.1-2.1-8.2-3.2c-0.6-0.2-1.3-0.3-1.9-0.5c-1.4-0.2-2.6,0.2-3.7,1.2c-1.1,1-2.1,1.4-3.1,1.2c-4.9-0.9-7.3-5-7.3-12.3
					v-18.1l-0.3-1.6c0.8-0.9,1.9-1.1,3.3-0.8c0.9,0.4,1.8,1,2.6,1.9c0.8,0.9,2.7,3.1,5.8,6.6c5,5.9,11,10.1,17.9,12.5
					c5,1.8,10.2,1.8,15.5,0c8.8-2.8,13.2-8.6,13.2-17.3c0-8-5-14.8-15.1-20.5c-1.2-1-5.1-3.2-11.4-6.4c-7.9-3.9-14.2-8.1-19.1-12.5
					c-7.4-6.7-11.1-14.7-11.1-24c0-11.4,3.8-20.2,11.3-26.6c6.9-6,15.4-9,25.6-9c6.9,0,14.6,1.7,23.3,5l4,1.1l0.7,0.3l1-0.5h0.7
					c0.6,0.2,1,1.6,1.2,4.2l0.6,19.5c-0.5,0.5-1.3,1.1-2.5,1.6c-0.7-0.2-1.6-1-2.8-2.4c-2.7-3.1-6.6-7.2-11.8-12.1
					c-4.1-2.8-8.7-4.2-13.7-4.2c-11.3,0-17.8,4.5-19.4,13.5c-0.4,2.5-0.1,5.4,1.1,8.9c1.2,3.5,3,6.3,5.5,8.6c1.2,1,3.8,2.7,7.7,4.8
					c2.1,1.1,4.7,2.4,7.8,4l4.7,2.4c13.2,6.4,21.6,12.8,25.2,19.1C786.4,135.5,787.9,141.6,787.9,148.1z"/>
				<path class="st0" d="M934.4,184c0,0.2-1.4,0.5-4.2,0.8c-2.8,0.3-4.5,0.4-4.9,0.1l-9.2-5.3v-12.1c-2.9,6-6.1,10.5-9.6,13.3
					c-4.5,3.6-9.6,5.4-15.2,5.4c-9.4,0-17.1-4.4-23-13.2c-5.1-7.4-7.7-17-7.7-28.6c0-12.3,2.8-22.9,8.5-31.8
					c6.2-9.9,14.6-14.8,25.1-14.8c6.1,0,11.3,1.7,15.6,5.1c2.1,1.8,4.3,4.4,6.4,7.8c0.2-4.6,0.3-10.5,0.3-17.7l-0.4-21.4
					c-0.1-5.4-1-9.2-2.7-11.2l-1.2-1.4c-0.5,0-0.8-0.6-0.8-1.6c0-1.8,0.5-2.7,1.7-2.7h16.1l0,28.7c0,1.5,0,9.9,0,25.3
					c0,15.4,0,23.6,0,24.6c0,1,0,6.3,0,16.1c0,9.9,0,15.8,0,17.7c0,2.3,0.3,4.9,0.8,7.8c0.8,3.7,1.7,5.7,2.9,6
					C933.7,181,934.1,182,934.4,184z M875.6,142.7c0,10.2,1.5,18.2,4.6,24c3.4,6.1,8.1,9.2,14.2,9.2c4.9,0,9.5-2.7,13.8-8.1
					c4.4-5.3,7.1-11.5,8.2-18.5c0.1-0.8,0.2-2.4,0.2-4.5c0-5.1-0.3-11-0.9-17.8c-0.6-6.9-1.3-10.7-2-11.7
					c-5.5-6.2-11.3-9.2-17.7-9.2c-6.1,0-11,2.8-14.5,8.5C877.6,121.1,875.6,130.4,875.6,142.7z"/>
				<path class="st0" d="M1015.9,136.5c0,3-1.1,4.5-3.2,4.5h-42.6l-4,3.7c-1.2,1.1-1.8,2.5-1.8,4.3c0,1.9,0.8,4.3,2.2,7.3
					c1.1,2.1,2.3,4.2,3.5,6.4c4.8,9.4,12.2,14.1,22.2,14.1c4.1,0,8.6-1.5,13.3-4.5c1.7-1.1,4.5-2.4,8.6-3.8c0.4-0.1,0.6,2.6,0.6,8.1
					c-7.8,6.7-16.6,9.9-26.3,9.9c-11,0-19.9-4.2-26.6-12.6c-6.8-8.5-10.1-18.9-10.1-31.3c0-15.9,5-28.3,14.9-37.1
					c6-5.4,12.4-8.1,19.4-8.1c8,0,14.8,3.3,20.3,9.8C1012.9,114.5,1016,124.3,1015.9,136.5z M1002.2,128.5
					c-0.2-6.3-1.5-11.6-4.1-15.7c-3-4.7-7.1-7.1-12.3-7.1c-6.3,0-11.3,3.3-14.7,9.9c-2.3,4-3.8,9.7-4.5,17.1h19.1h7.5
					c1.5,0,3.3-0.4,5.3-1.1C1000.9,130.6,1002.2,129.6,1002.2,128.5z"/>
				<path class="st0" d="M0.7,411.6C0.2,411,0,410.3,0,409.2c0-2.7,0.7-4,2-4.2c1.3-0.1,2.8-2,4.6-5.7c1.1-2.5,2.3-4.9,3.5-7.2
					c2.1-2.8,3.1-14.6,3.1-35.2v-26.7l0.7-53c0.1-13.3-0.5-21.5-1.8-24.5c-1.3-3-2.6-6.1-3.7-9.1c-1.8-4.8-3.5-7.2-5-7.3
					c-1.5-0.1-2.3-1.5-2.3-4.1c0-2.3,0.6-3.5,1.7-3.5l29.3,0.6l13.5,10.5l12.3,34.5l12,31.1l10.4,28c3.4,9.6,7.8,21,13,34.4
					c2.2-5.5,4.9-12.2,8.2-20c2.5-6.7,5.9-15.4,10.2-26.1c3.6-9.8,7.7-20.9,12.3-33.2c0.7-1.6,4-10.5,9.7-26.5l11.8-33.2h36.3
					c1.9,0,2.8,0.5,2.8,1.4c0,2.2-0.5,3.2-1.4,3.2c-5.1,0.5-8.7,9.8-10.7,27.8c-0.1,9.1-0.5,22.1-0.9,39c-0.4,8.7-0.7,20.9-0.7,36.6
					V376c0,10.5,0.6,16.5,1.9,18.1c0.8,2.2,1.6,4.3,2.4,6.4c1.2,3.4,2.8,5.2,4.7,5.6c1,0.2,1.4,1.3,1.4,3.4c0,0.7-1,1.1-3.1,1.1
					h-38.4c-1.1,0-1.6-1.2-1.6-3.5c0-1.9,0.4-2.9,1.2-2.9c2.3-0.4,4.1-2.3,5.4-5.9c0.6-2.3,1.3-4.6,2.1-6.9c0.3-0.5,0.8-3.5,1.4-9.1
					c0.2-4.4,0.5-10.4,0.7-17.8c0.1-3.4,0.2-7.4,0.2-12l1.5-91.6c0-1.6-0.1-2.4-0.4-2.4l-1.7,2.7l-20.1,50.8l-24,64.5
					c-2.2,6.6-4.8,14.1-7.8,22.6c-1,2.3-2.6,3.6-5,4c-0.8-0.2-1.6-0.8-2.6-1.9c-3.6-2.6-7.8-6.8-12.5-12.5l-10.8-29l-9.7-27.2
					l-25-66c-1.8-5-2.9-7.4-3.4-7.4c-0.6,0-0.9,1.1-0.7,3.2v1.1v22.4l-0.7,22.9v47.7c0,12.8,0.6,20.2,1.8,22.3
					c1.2,2.1,2.3,4.2,3.4,6.5c1.8,3.2,3.4,4.8,5,4.8c1.6,0,2.4,1.5,2.4,4.6c0,0.9-0.4,1.7-1.2,2.4l-15.8,13.8
					C17.3,410.8,10.1,411,0.7,411.6z"/>
				<path class="st0" d="M309.9,408.2c-2.2,3-8.8,4.5-19.8,4.5c-9.1,0-14.3-6.4-15.8-19.3c-10.7,12.8-22.4,19.3-35.1,19.3
					c-8.8,0-16.1-2.8-21.9-8.6c-5.8-5.7-8.7-13.5-8.7-23.2c0-7.8,1.6-14.7,4.8-20.8c3.3-6.1,8.1-10.1,14.7-12
					c1.7-3,6.3-5.4,13.7-7.1c6.4-1.8,13-2.7,19.6-2.7h1.2c7.1-0.7,10.6-4.1,10.6-10.1c0-8.3-0.4-13.5-1.2-15.4
					c-0.9-5.5-2.6-9.5-5.1-12c-2.4-2.5-5-3.9-7.9-4.3c-6-1.1-10.4,1.5-13.2,7.7c-0.6,1.5-1.7,2.9-3.3,4.5
					c-4.7,0.9-12.1,3.4-22.1,7.7c-0.8,0.3-1.7-1.3-2.9-5c-1.2-3.6-1.8-6.8-1.8-9.5c0-0.9,0.2-1.5,0.5-1.9
					c6.4-11.6,19.4-17.4,39.1-17.4c9.5,0,17.6,2.2,24.3,6.7c4.5,3.2,7.7,7.1,9.6,11.6c1.9,4.5,2.8,11.6,2.8,21.2v49.6
					c-0.2,7.8,0.1,13.5,0.9,17.1c0.8,3.6,1.9,6.2,3.3,8c1.9,2.7,4.1,3.9,6.8,3.7c0.3,0.2,1.9,0,4.7-0.5c0.3,0,0.8,1.3,1.4,3.8
					C309.8,406.4,310.1,407.9,309.9,408.2z M269.1,342.8c-2.7,0.9-6.9,2.6-12.6,5c-3.9,1.4-8.4,3.6-13.2,6.6
					c-9.5,4.6-14.2,12.3-14.2,23.2c0,5.6,1.6,10.5,5,14.5c3.3,4,7.4,6,12.3,6c5.9,0,11.1-2,15.7-6c5.9-5.1,9.6-11.6,11.1-19.5
					c0.8-3.5,0.7-12.8-0.2-27.7C271.6,344.4,270.3,343.7,269.1,342.8z"/>
				<path class="st0" d="M398.5,305.5c-3,1.4-7.7,3.6-14.1,6.7c-1.7,0.7-3.5,0.4-5.2-1.1c-0.3-0.3-0.7-0.7-1.2-1
					c-2-1.6-4.2-2-6.6-1.1c-5.2,2.1-9.5,7.4-12.9,15.7c-0.3,0.5-0.8,5.2-1.5,13.8c-0.3,3-0.5,12.2-0.5,27.4
					c0,24.2,1.9,36.4,5.6,36.7c0.8,0.2,1.2,1.1,1.2,2.7c0,3.6-0.9,5.3-2.8,5.3h-29.7c-1.3,0-1.9-1.4-1.9-4.2c0-3.2,0.9-4.8,2.6-5
					c3.3-0.2,5.1-7,5.2-20.5v-22.7c0-1-0.1-5.8-0.2-14.1c0-9.1-0.1-18.6-0.2-28.5c-0.8-16-2.8-24.1-6-24.3c-1.4,0-2.1-1.4-2.1-4.2
					c0-0.9,1.3-1.3,4-1.3l23.6-0.8l0.7,14.1l0.2,13.3c3.4-7.3,7.7-13.6,12.9-18.7c7.4-7.3,15-11,22.8-11c2.2,0,4.4,0.4,6.6,1.1
					c1.1,0.5,2.2,2.8,3.4,6.9c1.2,4.1,1.7,7.6,1.7,10.4c0,2-0.6,3.1-2,3.3C401.1,304.8,399.8,305.1,398.5,305.5z"/>
				<path class="st0" d="M493.4,305.5c-3,1.4-7.7,3.6-14.1,6.7c-1.7,0.7-3.5,0.4-5.2-1.1c-0.3-0.3-0.7-0.7-1.2-1
					c-2-1.6-4.2-2-6.6-1.1c-5.2,2.1-9.5,7.4-13,15.7c-0.3,0.5-0.8,5.2-1.4,13.8c-0.3,3-0.5,12.2-0.5,27.4c0,24.2,1.9,36.4,5.6,36.7
					c0.8,0.2,1.2,1.1,1.2,2.7c0,3.6-0.9,5.3-2.8,5.3h-29.7c-1.2,0-1.9-1.4-1.9-4.2c0-3.2,0.9-4.8,2.6-5c3.3-0.2,5.1-7,5.2-20.5
					v-22.7c0-1-0.1-5.8-0.2-14.1c0-9.1-0.1-18.6-0.2-28.5c-0.8-16-2.8-24.1-6-24.3c-1.4,0-2.1-1.4-2.1-4.2c0-0.9,1.4-1.3,4-1.3
					l23.6-0.8l0.7,14.1l0.2,13.3c3.4-7.3,7.7-13.6,12.9-18.7c7.4-7.3,15-11,22.9-11c2.2,0,4.4,0.4,6.6,1.1c1.1,0.5,2.2,2.8,3.4,6.9
					c1.2,4.1,1.8,7.6,1.8,10.4c0,2-0.7,3.1-2,3.3C496,304.8,494.7,305.1,493.4,305.5z"/>
				<path class="st0" d="M616.4,408.2c-2.2,3-8.8,4.5-19.8,4.5c-9.1,0-14.3-6.4-15.8-19.3c-10.6,12.8-22.4,19.3-35.1,19.3
					c-8.8,0-16.1-2.8-21.9-8.6c-5.8-5.7-8.7-13.5-8.7-23.2c0-7.8,1.6-14.7,4.8-20.8c3.2-6.1,8.1-10.1,14.7-12
					c1.7-3,6.3-5.4,13.6-7.1c6.5-1.8,13-2.7,19.6-2.7h1.2c7-0.7,10.6-4.1,10.6-10.1c0-8.3-0.4-13.5-1.2-15.4c-1-5.5-2.6-9.5-5.1-12
					c-2.4-2.5-5.1-3.9-7.9-4.3c-6-1.1-10.4,1.5-13.2,7.7c-0.6,1.5-1.7,2.9-3.3,4.5c-4.7,0.9-12.1,3.4-22.1,7.7c-0.8,0.3-1.7-1.3-3-5
					c-1.2-3.6-1.8-6.8-1.8-9.5c0-0.9,0.2-1.5,0.5-1.9c6.4-11.6,19.4-17.4,39.1-17.4c9.5,0,17.6,2.2,24.3,6.7
					c4.5,3.2,7.8,7.1,9.6,11.6c1.9,4.5,2.8,11.6,2.8,21.2v49.6c-0.1,7.8,0.1,13.5,1,17.1c0.7,3.6,1.9,6.2,3.3,8
					c1.9,2.7,4.2,3.9,6.8,3.7c0.3,0.2,1.9,0,4.7-0.5c0.3,0,0.8,1.3,1.4,3.8C616.3,406.4,616.6,407.9,616.4,408.2z M575.6,342.8
					c-2.7,0.9-6.9,2.6-12.6,5c-4,1.4-8.4,3.6-13.3,6.6c-9.5,4.6-14.2,12.3-14.2,23.2c0,5.6,1.7,10.5,5,14.5c3.3,4,7.4,6,12.3,6
					c5.8,0,11.1-2,15.6-6c5.9-5.1,9.6-11.6,11.2-19.5c0.7-3.5,0.7-12.8-0.3-27.7C578.1,344.4,576.8,343.7,575.6,342.8z"/>
				<path class="st0" d="M743.6,409.4c0,0.9-1.9,1.3-5.9,1.3h-25.5c-2-2.1-4.5-5.5-7.6-10.1c-3.9-5.7-6.1-10-6.4-13.1
					c-0.6-5.1-5-13.3-13.2-24.5c-8.1-10.7-13.8-16.7-17.3-18.1l-6.9,13.8v6.6c0,11,0.2,18.1,0.7,21.3c1.1,11.2,3,16.8,5.8,17
					c1.1,0,1.7,1.2,1.7,3.5c-0.4,2.3-1,3.5-1.9,3.5h-29.7c-2,0-3.1-2.1-3.1-6.4c0-2.7,0.5-4.1,1.5-4.3c1-0.2,2-1.9,2.9-5l1.6-6.2
					c1.1-1.8,1.6-8.8,1.6-21l-0.7-129.4c0-2.5,0-15.3,0-16c0-1.6,1.5-2.4,4.4-2.4c1.1,0,2.2,0.4,3.1,1.1l4.8,4
					c0.8,0.7,2.2,2.2,4.1,4.6c1.1,1.2,2.2,1.8,3.1,1.6v6.6v13.3v22.1v73.8c2.2-1.8,9.3-9.7,21.1-23.7c6.5-7.6,12.8-15.3,19.2-22.9
					c1.1-1.5,3.5-3.3,7.1-5.6c3-1.9,4.5-3.2,4.5-3.7l0.5-1.9c0.2-0.5-0.1-0.9-0.9-1.1l-0.7-0.2c-0.2,0-0.2-0.4-0.2-1.1
					c0-0.4,0.4-0.7,1.2-1.1c0.7-0.5,1.2-0.5,1.4,0l6.7,15.4c0.1,0,0.2,1,0.2,2.9c0,1.5-0.8,2.3-2.4,2.7c-4.2,0.9-12.5,8.8-24.8,23.7
					c-0.7,1.1-1.2,2.3-1.2,3.7c0,0.9,0.1,2.1,0.5,3.5c0.3,1.4,0.5,2.4,0.5,2.9c0,0.5-0.3,1-1,1.3c3.7,2.1,8.9,8.2,15.7,18.1
					c7.3,10.8,11.6,19.6,13.1,26.4c0.8,3.7,3.4,8,7.8,12.8c4.3,4.8,8.2,7.3,11.5,7.5c0.4,0,1.1,0.4,1.9,1.1
					C743.2,408.5,743.6,409,743.6,409.4z"/>
				<path class="st0" d="M852.8,340.1c0,4.5-1.5,6.7-4.7,6.7h-62.5l-5.9,5.4c-1.7,1.6-2.6,3.7-2.6,6.4c0,2.7,1.1,6.2,3.3,10.7
					c1.7,3.1,3.5,6.1,5.2,9.3c7,13.7,17.9,20.5,32.7,20.5c6.1,0,12.6-2.2,19.5-6.6c2.5-1.6,6.7-3.4,12.7-5.5c0.6-0.1,0.9,3.8,0.9,12
					c-11.4,9.7-24.4,14.6-38.6,14.6c-16.2,0-29.3-6.2-39.2-18.6c-10-12.4-15-27.8-15-46.1c0-23.4,7.3-41.6,21.9-54.6
					c8.8-8,18.2-12,28.4-12c11.8,0,21.8,4.8,29.9,14.5C848.3,307.7,853,322.1,852.8,340.1z M832.6,328.2c-0.1-9.3-2.1-16.9-5.9-22.9
					c-4.4-6.9-10.4-10.4-18.1-10.4c-9.2,0-16.5,4.8-21.7,14.4c-3.3,5.9-5.5,14.3-6.6,25.1h28.1h11c2.2,0,4.8-0.5,7.8-1.6
					C830.8,331.3,832.6,329.8,832.6,328.2z"/>
				<path class="st0" d="M964.4,391.8c-3.3,6.4-8.3,11.5-15.1,15.5c-6.8,3.9-14.4,5.8-23.1,5.8c-9.5,0-18.4-2.9-26.6-8.6
					c-8.1-5.8-14.4-13.6-18.7-23.3c-4.3-9.8-6.4-20.7-6.4-32.8c0-18.8,4.8-34.5,14.3-46.9c10.2-12.6,23.6-18.9,40.1-18.9
					c10.2,0,20.1,2.3,29.7,6.7c3,1.4,4.5,6.1,4.5,13.9c0,1.8-0.4,3.8-1.2,5.9c-0.7,2.7-1.6,3.9-2.5,3.7c-3.6-0.4-7.2-2.8-10.6-7.4
					c-5-6.8-11.4-10.3-19.3-10.3c-9.1,0-16.3,3.6-21.7,10.9c-7.2,9.6-10.8,22.7-10.8,39.3c0,13.8,2.8,25.9,8.5,36.1
					c6.6,12.1,15.7,18.1,27.3,18.1c5.3,0,10.6-1.6,15.7-4.8c5.1-3.2,9.2-7.3,12.1-12.2c1-1.6,1.9-2.5,2.9-2.7
					C963.7,383.6,964,387.6,964.4,391.8z"/>
				<path class="st0" d="M1093.1,409.6c0,0.5-2.1,1-6.4,1.5c-4.4,0.5-6.9,0.3-7.5-0.5l-17-18.9c-0.6-0.2-0.9-1.1-0.9-2.7
					c0.2-1.1,0.6-2.1,1.2-3.2c2.1-0.3,3.9-4.3,5.2-11.9c0-2.7,0-5.6,0.1-8.8c0.2-4.8,0.3-12.9,0.3-24.3c0-11-0.4-18.7-1-22.9
					c-1.5-9.3-5-15.4-10.3-18.6c-2.6-1.6-5.5-2.4-8.6-2.4c-4.8,0-9.8,1.6-15,4.8c-6.8,4.5-12.4,11.5-16.6,21.1
					c-0.3,0.9-0.8,12-1.4,33.2c-0.3,7.5-0.4,14.3-0.2,20.3v8v9.4c0.3,8.2,1.8,12.7,4.5,13.4c0.3,0,0.8,1,1.4,3.2
					c0,0.5-1.7,0.8-4.9,0.8h-1.7h-4.5c-3,0-4.7,0-5.2,0c-1.3,0-2.6-1.2-4-3.4c-0.8-1.5-1.6-2.9-2.4-4.3l-5-6.1l-3.8-4
					c-0.8,0-1.1-1.1-1.1-3.2c0-2.1,0.5-3.3,1.6-3.4c1.1-0.2,2.5-3.7,4.2-10.4c0.1-4.6,0.5-11.6,0.9-20.8c0.5-7.8,0.7-23,0.7-45.6
					V267c0-19,0-30,0-33.1c-0.4-2.3,2-12.6,2-13.3c0-0.4,0.3-0.6,0.9-0.8c0.5-0.2,0.9-0.2,1.2,0l15,12.5v58.6
					c-0.1,10.8-0.1,16.2,0,16.2c10.7-16.2,23.5-24.3,38.3-24.3c11,0,19.3,3.7,25.1,11.1c5.8,7.4,8.5,18.5,8.4,33.3v53.6
					c0,9.8,0.3,15.2,0.9,16c0.2,0.2,0.7,1.7,1.7,4.7c0.9,3,1.6,4.4,2.1,4.4C1092.6,405.9,1093.1,407.2,1093.1,409.6z"/>
			</g>
		</g>
	</g>
	<g>
		<path class="st0" d="M75,559.1h-5.6l-11.5-29H23.1l-11.5,29H5.9l34.5-85.4L75,559.1z M55.9,525.1l-15.4-39l-15.4,39H55.9z
			 M45.8,468l-2.9,2.2l-12.8-16.7l3.6-2.7L45.8,468z"/>
		<path class="st0" d="M123.7,559.1h-5v-91.3h5V559.1z"/>
		<path class="st0" d="M154.2,476.7L142,502l-3-1.3l10.3-26.2L154.2,476.7z"/>
		<path class="st0" d="M217.7,533.3c0,7.5-2.6,13.8-7.8,19c-5.2,5.2-11.5,7.8-18.9,7.8c-7.3,0-13.5-2.6-18.6-7.8
			c-5.1-5.2-7.7-11.6-7.7-19c0-7.4,2.5-13.7,7.6-18.8c5.1-5.1,11.3-7.7,18.7-7.7c7.5,0,13.9,2.5,19,7.6
			C215.2,519.6,217.7,525.9,217.7,533.3z M212.7,533.4c0-6.2-2.1-11.4-6.2-15.6c-4.1-4.2-9.2-6.3-15.3-6.3c-6.1,0-11.2,2.1-15.3,6.3
			c-4.2,4.2-6.2,9.4-6.2,15.6c0,6.2,2.1,11.4,6.3,15.7c4.2,4.3,9.3,6.4,15.3,6.4c6,0,11.1-2.1,15.2-6.4
			C210.6,544.9,212.7,539.6,212.7,533.4z"/>
		<path class="st0" d="M252.7,508l-1.7,4.6c-0.5-0.4-1.1-0.6-1.9-0.8c-0.8-0.2-1.5-0.3-2.3-0.3c-4.1,0-7.1,2.1-9.1,6.2
			c-1.9,4.2-2.9,10.6-2.9,19.2v22.2h-5V508h5v8.2c1.2-3.3,2.8-5.6,4.9-7.1c2.1-1.5,4.8-2.2,8.1-2.2c0.9,0,1.8,0.1,2.6,0.3
			C251.3,507.3,252,507.6,252.7,508z"/>
		<path class="st0" d="M267.2,489.4c0,1.2-0.4,2.3-1.3,3.1c-0.9,0.9-1.9,1.3-3.1,1.3c-1.2,0-2.3-0.4-3.1-1.3
			c-0.9-0.9-1.3-1.9-1.3-3.1s0.4-2.3,1.3-3.1c0.9-0.9,1.9-1.3,3.1-1.3c1.2,0,2.2,0.4,3.1,1.3C266.8,487.1,267.2,488.2,267.2,489.4z
			 M265.4,559.1h-5V508h5V559.1z"/>
		<path class="st0" d="M327.7,561.8c0,9.4-1.9,16.3-5.8,20.7c-3.9,4.4-9.9,6.5-18.2,6.5c-6.3,0-11.3-1.2-15-3.6
			c-3.7-2.4-6.1-6.1-7.3-10.9h5.4c0.9,3.4,2.7,5.9,5.4,7.5c2.8,1.6,6.7,2.4,11.7,2.4c6.7,0,11.5-1.7,14.4-5.1
			c2.9-3.4,4.4-8.8,4.4-16.4v-13.5c-2.3,3.7-5,6.4-8.2,8.2c-3.2,1.7-7,2.6-11.4,2.6c-7.1,0-12.9-2.4-17.4-7.2
			c-4.4-4.8-6.7-11.1-6.7-18.9c0-8.1,2.2-14.7,6.6-19.7c4.4-5,10.1-7.5,17-7.5c5,0,9.1,0.8,12.2,2.5c3.1,1.7,5.7,4.5,7.9,8.4V508h5
			V561.8z M322.7,533.4c0-6.7-1.8-12.1-5.4-16c-3.6-3.9-8.4-5.9-14.3-5.9c-5.7,0-10.3,2.1-13.8,6.2c-3.5,4.1-5.3,9.6-5.3,16.3
			c0,6.6,1.8,11.8,5.4,15.7c3.6,3.9,8.4,5.8,14.4,5.8c5.8,0,10.4-2,13.9-6C321,545.5,322.7,540.2,322.7,533.4z"/>
		<path class="st0" d="M354.1,489.4c0,1.2-0.4,2.3-1.3,3.1c-0.9,0.9-1.9,1.3-3.1,1.3c-1.2,0-2.3-0.4-3.1-1.3
			c-0.9-0.9-1.3-1.9-1.3-3.1s0.4-2.3,1.3-3.1c0.9-0.9,1.9-1.3,3.1-1.3c1.2,0,2.2,0.4,3.1,1.3C353.7,487.1,354.1,488.2,354.1,489.4z
			 M352.3,559.1h-5V508h5V559.1z"/>
		<path class="st0" d="M408.6,559.1h-5v-31.8c0-5.5-1-9.6-2.9-12.1c-2-2.5-5.2-3.8-9.6-3.8c-5.2,0-9.1,1.8-11.5,5.5
			c-2.4,3.7-3.6,9.5-3.6,17.5v24.6h-5V508h5v8.5c1.6-3.4,3.7-5.8,6.3-7.4c2.6-1.5,5.9-2.3,9.9-2.3c5,0,9,1.6,12,4.9
			c2.9,3.3,4.4,7.8,4.4,13.6V559.1z"/>
		<path class="st0" d="M468.4,533.2h-42.6c0.1,7.2,1.8,12.7,5.1,16.5c3.3,3.9,7.9,5.8,13.7,5.8c4.2,0,7.8-0.9,10.8-2.8
			c3-1.8,5.5-4.6,7.4-8.4l4.3,2.2c-2.5,4.6-5.6,8.1-9.3,10.3c-3.6,2.2-8,3.3-13.2,3.3c-7.4,0-13.2-2.4-17.5-7.2
			c-4.2-4.8-6.3-11.4-6.3-19.7c0-7.7,2.2-14,6.8-19c4.5-4.9,10.2-7.4,17-7.4c7.2,0,12.9,2.2,17.3,6.8c4.4,4.5,6.5,10.6,6.5,18.2
			V533.2z M463,528.5c-0.3-5.1-2.2-9.2-5.5-12.3c-3.4-3.1-7.7-4.7-12.9-4.7c-4.9,0-9.1,1.6-12.6,4.7c-3.5,3.2-5.5,7.3-5.9,12.3
			L463,528.5z"/>
		<path class="st0" d="M560.8,559.1h-5v-9.7c-2.3,3.7-5.1,6.4-8.2,8.2c-3.2,1.7-7,2.6-11.4,2.6c-7.1,0-12.9-2.4-17.4-7.2
			c-4.4-4.8-6.7-11.1-6.7-18.9c0-8.1,2.2-14.7,6.6-19.7c4.4-5,10.1-7.5,17.1-7.5c5.3,0,9.5,0.8,12.4,2.5c2.9,1.7,5.5,4.5,7.7,8.3
			v-49.9h5V559.1z M555.8,533.4c0-6.7-1.8-12.1-5.4-16c-3.6-3.9-8.4-5.9-14.3-5.9c-5.7,0-10.2,2.1-13.8,6.2
			c-3.5,4.1-5.3,9.6-5.3,16.3c0,6.6,1.8,11.8,5.4,15.7c3.6,3.9,8.4,5.8,14.3,5.8c5.8,0,10.4-2,13.9-6
			C554.1,545.5,555.8,540.2,555.8,533.4z"/>
		<path class="st0" d="M621.1,533.2h-42.6c0.1,7.2,1.8,12.7,5.1,16.5c3.3,3.9,7.9,5.8,13.7,5.8c4.2,0,7.8-0.9,10.8-2.8
			c3-1.8,5.5-4.6,7.4-8.4l4.3,2.2c-2.5,4.6-5.6,8.1-9.2,10.3c-3.6,2.2-8,3.3-13.2,3.3c-7.4,0-13.2-2.4-17.5-7.2
			c-4.2-4.8-6.3-11.4-6.3-19.7c0-7.7,2.3-14,6.8-19c4.5-4.9,10.2-7.4,17-7.4c7.2,0,12.9,2.2,17.3,6.8c4.4,4.5,6.5,10.6,6.5,18.2
			V533.2z M615.8,528.5c-0.3-5.1-2.2-9.2-5.5-12.3c-3.4-3.1-7.7-4.7-12.9-4.7c-4.9,0-9.1,1.6-12.6,4.7c-3.5,3.2-5.5,7.3-5.9,12.3
			L615.8,528.5z"/>
		<path class="st0" d="M673.3,559.1h-5v-91.3h5V559.1z"/>
		<path class="st0" d="M734.8,559.1h-5v-9.7c-2.3,3.7-5.1,6.4-8.2,8.2c-3.2,1.7-7,2.6-11.4,2.6c-7.1,0-12.9-2.4-17.4-7.2
			c-4.5-4.8-6.7-11.1-6.7-18.9c0-8.1,2.2-14.7,6.6-19.7c4.4-5,10.1-7.5,17-7.5c5.1,0,9.1,0.8,12.2,2.5c3.1,1.7,5.7,4.5,7.9,8.4V508
			h5V559.1z M729.8,533.4c0-6.7-1.8-12.1-5.4-16c-3.6-3.9-8.3-5.9-14.3-5.9c-5.7,0-10.3,2.1-13.8,6.2c-3.5,4.1-5.3,9.6-5.3,16.3
			c0,6.6,1.8,11.8,5.4,15.7c3.6,3.9,8.4,5.8,14.3,5.8c5.8,0,10.4-2,13.9-6C728.1,545.5,729.8,540.2,729.8,533.4z"/>
		<path class="st0" d="M834.5,534.1c0,7.8-2.2,14.1-6.7,18.9c-4.4,4.8-10.2,7.2-17.4,7.2c-4.4,0-8.2-0.9-11.4-2.6
			c-3.2-1.7-5.9-4.5-8.2-8.2v9.7h-5v-91.3h5v49.9c2-3.6,4.7-6.3,8-8.1c3.4-1.8,7.4-2.8,12-2.8c7,0,12.7,2.5,17.1,7.5
			C832.2,519.4,834.5,526,834.5,534.1z M829.5,534c0-6.7-1.8-12.2-5.3-16.3c-3.5-4.1-8.1-6.2-13.8-6.2c-6.1,0-10.9,1.9-14.4,5.8
			c-3.5,3.9-5.2,9.3-5.2,16.1c0,6.7,1.7,12.1,5.3,16.1c3.5,4,8.2,6,14,6c5.9,0,10.7-1.9,14.2-5.8C827.7,545.9,829.5,540.6,829.5,534
			z"/>
		<path class="st0" d="M891.5,533.2h-42.7c0.1,7.2,1.8,12.7,5.1,16.5c3.3,3.9,7.9,5.8,13.7,5.8c4.2,0,7.8-0.9,10.7-2.8
			c3-1.8,5.5-4.6,7.4-8.4l4.3,2.2c-2.5,4.6-5.6,8.1-9.3,10.3c-3.6,2.2-8.1,3.3-13.2,3.3c-7.4,0-13.3-2.4-17.5-7.2
			c-4.2-4.8-6.3-11.4-6.3-19.7c0-7.7,2.3-14,6.8-19c4.5-4.9,10.2-7.4,17-7.4c7.2,0,12.9,2.2,17.3,6.8c4.4,4.5,6.5,10.6,6.5,18.2
			V533.2z M886.1,528.5c-0.3-5.1-2.2-9.2-5.5-12.3c-3.4-3.1-7.7-4.7-12.9-4.7c-4.9,0-9.1,1.6-12.6,4.7c-3.5,3.2-5.5,7.3-5.9,12.3
			L886.1,528.5z"/>
		<path class="st0" d="M949.5,559.1h-5v-9.7c-2.3,3.7-5.1,6.4-8.2,8.2c-3.2,1.7-7,2.6-11.4,2.6c-7.1,0-12.9-2.4-17.4-7.2
			c-4.5-4.8-6.7-11.1-6.7-18.9c0-8.1,2.2-14.7,6.6-19.7c4.4-5,10.1-7.5,17-7.5c5,0,9.1,0.8,12.2,2.5c3.1,1.7,5.7,4.5,7.9,8.4V508h5
			V559.1z M944.6,533.4c0-6.7-1.8-12.1-5.4-16c-3.6-3.9-8.4-5.9-14.3-5.9c-5.7,0-10.3,2.1-13.8,6.2c-3.5,4.1-5.3,9.6-5.3,16.3
			c0,6.6,1.8,11.8,5.4,15.7c3.6,3.9,8.4,5.8,14.4,5.8c5.8,0,10.4-2,13.9-6C942.8,545.5,944.6,540.2,944.6,533.4z"/>
		<path class="st0" d="M1000.8,538c0,7.8-1.4,13.5-4.2,17c-2.8,3.5-7.4,5.2-13.6,5.2c-6.2,0-10.7-1.8-13.5-5.3
			c-2.9-3.6-4.3-9.2-4.3-16.9v-30h5v28.5c0,6.8,0.9,11.7,2.8,14.6c1.9,2.9,5.2,4.4,10,4.4c4.9,0,8.2-1.4,10.1-4.3
			c1.9-2.9,2.8-7.8,2.8-14.7V508h5V538z"/>
		<path class="st0" d="M1031.7,512.6h-9.4v46.5h-5v-46.5h-7.1V508h7.1V486h5V508h9.4V512.6z"/>
		<path class="st0" d="M1083.8,533.2h-42.6c0.1,7.2,1.8,12.7,5.1,16.5c3.3,3.9,7.8,5.8,13.7,5.8c4.2,0,7.8-0.9,10.8-2.8
			c3-1.8,5.5-4.6,7.4-8.4l4.3,2.2c-2.5,4.6-5.6,8.1-9.2,10.3c-3.6,2.2-8,3.3-13.2,3.3c-7.4,0-13.2-2.4-17.5-7.2
			c-4.2-4.8-6.3-11.4-6.3-19.7c0-7.7,2.3-14,6.8-19c4.5-4.9,10.2-7.4,17-7.4c7.2,0,12.9,2.2,17.3,6.8c4.4,4.5,6.5,10.6,6.5,18.2
			V533.2z M1078.4,528.5c-0.3-5.1-2.2-9.2-5.5-12.3c-3.4-3.1-7.7-4.7-12.9-4.7c-4.9,0-9.1,1.6-12.6,4.7c-3.5,3.2-5.4,7.3-5.9,12.3
			L1078.4,528.5z M1070.3,485.8l-12.8,16.7l-2.9-2.2l12-17.2L1070.3,485.8z"/>
	</g>
</g>
<g>
	<g>
		<path class="st0" d="M482.4,772.9c5,0,5.1-10,0.1-10C477.5,762.9,477.4,772.9,482.4,772.9L482.4,772.9z"/>
	</g>
</g>
</svg>
